<svg t="1740469586212" class="icon" viewBox="0 0 1024 1024" version="1.1" xmlns="http://www.w3.org/2000/svg" p-id="23383" width="200" height="200"><path d="M789.333333 768H328.96c-17.066667 0-33.28-6.826667-45.226667-18.773333L76.8 542.293333c-16.64-16.64-16.64-43.946667 0-60.586666l206.933333-206.933334c11.946667-11.946667 28.16-18.773333 45.226667-18.773333H789.333333c94.293333 0 170.666667 76.373333 170.666667 170.666667v170.666666c0 94.293333-76.373333 170.666667-170.666667 170.666667z" fill="#297EFF" p-id="23384" data-spm-anchor-id="a313x.search_index.0.i19.12c23a81ZjdcLn" class="selected"></path><path d="M457.386667 598.186667l196.266666-196.266667c12.373333-12.373333 32.853333-12.373333 45.226667 0 12.373333 12.373333 12.373333 32.853333 0 45.226667l-196.266667 196.266666c-12.373333 12.373333-32.853333 12.373333-45.226666 0a32.170667 32.170667 0 0 1 0-45.226666z" fill="#CEDDFD" p-id="23385"></path><path d="M653.653333 643.413333l-196.266666-196.266666a32.170667 32.170667 0 0 1 0-45.226667c12.373333-12.373333 32.853333-12.373333 45.226666 0l196.266667 196.266667c12.373333 12.373333 12.373333 32.853333 0 45.226666-12.8 12.373333-32.853333 12.373333-45.226667 0z" fill="#CEDDFD" p-id="23386"></path></svg>