<?xml version="1.0" standalone="no"?><!DOCTYPE svg PUBLIC "-//W3C//DTD SVG 1.1//EN" "http://www.w3.org/Graphics/SVG/1.1/DTD/svg11.dtd"><svg t="1740408336778" class="icon" viewBox="0 0 1024 1024" version="1.1" xmlns="http://www.w3.org/2000/svg" p-id="3665" xmlns:xlink="http://www.w3.org/1999/xlink" width="200" height="200"><path d="M512 0c282.7776 0 512 229.2224 512 512s-229.2224 512-512 512S0 794.7776 0 512 229.2224 0 512 0z m223.872 361.2672c-23.7312 0-42.9568 19.2256-42.9568 42.9568v86.5792h-243.4048v-99.84a28.8512 28.8512 0 0 0-50.0224-19.5584l-132.352 143.232a28.8512 28.8512 0 0 0 0 39.168l132.352 143.2064a28.8512 28.8512 0 0 0 50.0224-19.584v-99.84h286.3616c23.7056 0 42.9568-19.2 42.9568-42.9312V404.224c0-23.7312-19.2512-42.9568-42.9568-42.9568z" fill="#297EFF" p-id="3666"></path></svg>