<svg t="1740564189346" class="icon" viewBox="0 0 1024 1024" version="1.1" xmlns="http://www.w3.org/2000/svg" p-id="9816" width="200" height="200"><path d="M814.08 616.448H218.112c-33.792 0-61.44-27.648-61.44-61.44v-337.92c0-33.792 27.648-61.44 61.44-61.44h595.968c33.792 0 61.44 27.648 61.44 61.44v337.92c0 33.792-27.648 61.44-61.44 61.44z" fill="#1296db" p-id="9817" data-spm-anchor-id="a313x.search_index.0.i25.72783a81T1emAy" class="selected"></path><path d="M1024 51.2c0-27.648-22.528-51.2-51.2-51.2H52.224C22.528 0 0 23.552 0 51.2v672.768c0 27.648 22.528 51.2 51.2 51.2h409.6V921.6H52.224c-27.648 0-51.2 22.528-51.2 51.2s22.528 51.2 51.2 51.2H972.8c27.648 0 51.2-22.528 51.2-51.2s-22.528-51.2-51.2-51.2H563.2V775.168h119.808c27.648 0 51.2-22.528 51.2-51.2 0-27.648-22.528-51.2-51.2-51.2H102.4V102.4h818.176v153.6c0 27.648 22.528 51.2 51.2 51.2s52.224-22.528 52.224-51.2V51.2z" fill="#297EFF" p-id="9818" data-spm-anchor-id="a313x.search_index.0.i24.72783a81T1emAy" class=""></path><path d="M648.192 184.32C522.24 184.32 419.84 285.696 419.84 411.648c0 125.952 102.4 227.328 227.328 227.328 49.152 0 94.208-15.36 131.072-41.984 2.048 7.168 6.144 13.312 12.288 18.432l144.384 144.384c19.456 19.456 52.224 19.456 72.704 0 19.456-19.456 19.456-52.224 0-72.704l-144.384-143.36c-6.144-6.144-13.312-10.24-21.504-13.312 21.504-34.816 33.792-75.776 33.792-118.784 0-125.952-102.4-227.328-227.328-227.328z m0 352.256c-68.608 0-124.928-56.32-124.928-124.928S579.584 286.72 648.192 286.72s124.928 56.32 124.928 124.928S716.8 536.576 648.192 536.576z" fill="#297EFF" p-id="9819" data-spm-anchor-id="a313x.search_index.0.i23.72783a81T1emAy" class=""></path></svg>