<svg t="1742262606497" class="icon" viewBox="0 0 1024 1024" version="1.1" xmlns="http://www.w3.org/2000/svg" p-id="20790" width="200" height="200"><path d="M182.464 131.2a51.2 51.2 0 0 0-51.2 51.2v659.2a51.2 51.2 0 0 0 51.2 51.2h659.2a51.2 51.2 0 0 0 51.2-51.2V182.4a51.2 51.2 0 0 0-51.2-51.2h-659.2m0-76.8h659.2a128 128 0 0 1 128 128v659.2a128 128 0 0 1-128 128h-659.2a128 128 0 0 1-128-128V182.4a128 128 0 0 1 128-128z" p-id="20791" data-spm-anchor-id="a313x.search_index.0.i12.54323a81uK2R1q" class="selected" fill="#1296db"></path><path d="M438.4 54.4h403.2a128 128 0 0 1 128 128v403.2h-403.2a128 128 0 0 1-128-128V54.4z" p-id="20792" data-spm-anchor-id="a313x.search_index.0.si11.54323a81uK2R1q" class="" fill="#17abe3"></path></svg>