<svg t="1740557693381" class="icon" viewBox="0 0 1024 1024" version="1.1" xmlns="http://www.w3.org/2000/svg" p-id="6337" width="200" height="200"><path d="M377.66 952.17L76.04 134.51l-0.07-0.17-11.28-30.09 0.29 0.26-8.48-22.99-12.14-32.17 34.42 12.84 11.06 3.79h-0.48l35.93 11.98 0.51 0.35 830.9 284.63 63.02 18.56-77.36 22.52-408.54 111.65-106.8 406.7-26.57 90.55-22.79-60.75z m17.3-135.13l80.95-329.76 0.13 0.03 6.18-24.41 341.82-78.82L150.1 153.22l244.86 663.82z" p-id="6338" fill="#1296db" data-spm-anchor-id="a313x.search_index.0.i9.71ae3a81VTIHvF" class="selected"></path><path d="M45.21 50.21l12.88 4.8 20.54 7.66 8.14 2.79h-0.57l5.99 2 16.5 5.5 16.37 5.46 0.14 0.1 0.26 0.17 0.11 0.07 0.13 0.04 830.89 284.63 61.36 18.07-36.22 10.55-39.48 11.5-204.15 55.77-204.14 55.79-0.56 0.15-0.15 0.56-53.35 203.21-53.36 203.18-13.5 46-12.66 43.13-10.6-28.27L378.13 952 235.15 564.39 92.17 176.78l-7.83-21.22-7.85-21.27-0.04-0.09-0.02-0.05-6-16L65.88 106l0.27 0.25-1.41-3.82-7.78-21.09-11.75-31.13m349.84 768.53l0.78-3.17 80.44-327.68 0.12 0.03 0.25-0.97 5.98-23.63 339.82-78.36 3.41-0.79-3.31-1.13-671.29-229.95-1.99-0.68 0.73 1.97 243.93 661.3 1.13 3.06M43.5 48.5c4.18 11.06 8.35 22.13 12.53 33.19l7.78 21.09-0.31-0.28c4 10.67 8 21.33 12 32 0.03 0.06 0.05 0.12 0.08 0.18l15.66 42.45c95.32 258.41 190.64 516.82 285.96 775.22 7.77 20.72 15.54 41.43 23.31 62.15l27-92c35.58-135.47 71.15-270.95 106.73-406.42 136.09-37.19 272.18-74.38 408.27-111.58 26.33-7.67 52.67-15.33 79-23-21.54-6.34-43.09-12.69-64.64-19.03L126.01 77.85c-0.17-0.12-0.34-0.23-0.51-0.35-11-3.67-22-7.33-33-11h0.4l-13.95-4.78c-11.82-4.4-23.63-8.81-35.45-13.22z m351.36 766.83l-243.93-661.3 671.29 229.96-340.41 78.49-6.13 24.22-0.13-0.03-80.69 328.66z" p-id="6339" fill="#ffffff"></path></svg>