<svg t="1741318804014" class="icon" viewBox="0 0 1024 1024" version="1.1" xmlns="http://www.w3.org/2000/svg" p-id="18912" data-spm-anchor-id="a313x.search_index.0.i42.1cc13a81NGOjbW" width="200" height="200"><path d="M85.333333 256v384q0 4.202667 0.426667 8.384 0.405333 4.16 1.216 8.277333 0.810667 4.117333 2.026667 8.106667 1.216 4.032 2.816 7.893333 1.621333 3.882667 3.584 7.573334 1.984 3.712 4.309333 7.189333 2.346667 3.477333 4.992 6.72 2.666667 3.242667 5.632 6.208 2.965333 2.965333 6.186667 5.632 3.242667 2.645333 6.741333 4.992 3.477333 2.325333 7.168 4.288 3.712 1.984 7.573333 3.584 3.882667 1.6 7.893334 2.816 4.010667 1.216 8.106666 2.048 4.117333 0.810667 8.298667 1.216 4.16 0.426667 8.362667 0.426667h277.333333V789.333333H224q-1.578667 0-3.136 0.149334t-3.114667 0.469333q-1.536 0.298667-3.029333 0.768-1.493333 0.448-2.965333 1.066667-1.450667 0.576-2.837334 1.322666t-2.688 1.621334q-1.322667 0.853333-2.538666 1.877333-1.216 0.981333-2.325334 2.090667-1.109333 1.109333-2.112 2.346666-0.981333 1.194667-1.856 2.517334-0.874667 1.28-1.621333 2.688-0.746667 1.386667-1.344 2.837333-0.597333 1.450667-1.066667 2.965333-0.426667 1.493333-0.746666 3.029334-0.32 1.557333-0.469334 3.114666Q192 819.754667 192 821.333333t0.149333 3.136q0.149333 1.557333 0.469334 3.114667 0.298667 1.536 0.768 3.029333 0.448 1.493333 1.066666 2.965334 0.576 1.450667 1.322667 2.837333t1.621333 2.688q0.853333 1.322667 1.856 2.538667 1.002667 1.216 2.133334 2.325333 1.088 1.109333 2.304 2.112 1.216 0.981333 2.538666 1.856 1.28 0.874667 2.688 1.621333 1.386667 0.746667 2.837334 1.344 1.450667 0.597333 2.965333 1.066667 1.493333 0.426667 3.029333 0.746667 1.557333 0.32 3.114667 0.469333 1.557333 0.149333 3.136 0.149333H597.333333v-64h-21.333333v-64h21.333333v-64H170.666667q-2.090667 0-4.16-0.405333-2.069333-0.426667-4.010667-1.216-1.92-0.810667-3.690667-1.962667-1.728-1.173333-3.221333-2.666666-1.493333-1.493333-2.645333-3.221334-1.173333-1.749333-1.984-3.690666-0.810667-1.941333-1.216-4.010667Q149.333333 642.133333 149.333333 640V256q0-2.090667 0.426667-4.16 0.384-2.048 1.194667-3.989333 0.810667-1.941333 1.984-3.690667 1.152-1.749333 2.645333-3.242667 1.493333-1.493333 3.221333-2.645333 1.749333-1.173333 3.690667-1.984 1.941333-0.789333 4.010667-1.216Q168.576 234.666667 170.666667 234.666667h682.666666q2.112 0 4.16 0.426666 2.069333 0.405333 4.010667 1.194667 1.92 0.810667 3.690667 1.984 1.749333 1.152 3.221333 2.645333 1.493333 1.493333 2.645333 3.242667 1.173333 1.749333 1.984 3.690667 0.810667 1.92 1.216 3.989333 0.405333 2.069333 0.405334 4.16v64h64v-64q0-4.202667-0.426667-8.362667-0.384-4.181333-1.216-8.277333-0.810667-4.117333-2.026667-8.128t-2.837333-7.893333q-1.6-3.861333-3.562667-7.573334-1.984-3.690667-4.309333-7.168-2.346667-3.498667-4.992-6.741333-2.666667-3.221333-5.632-6.186667-2.965333-2.986667-6.186667-5.632-3.242667-2.666667-6.741333-4.992-3.477333-2.325333-7.168-4.309333-3.712-1.962667-7.573333-3.584-3.882667-1.6-7.893334-2.816-4.010667-1.216-8.106666-2.026667-4.117333-0.810667-8.298667-1.237333Q857.514667 170.666667 853.333333 170.666667H170.666667q-4.202667 0-8.362667 0.426666-4.181333 0.405333-8.277333 1.216-4.117333 0.810667-8.128 2.026667t-7.893334 2.816q-3.861333 1.621333-7.573333 3.584-3.690667 1.984-7.168 4.309333-3.498667 2.346667-6.741333 4.992-3.221333 2.666667-6.186667 5.632-2.986667 2.965333-5.632 6.186667-2.666667 3.242667-4.992 6.741333-2.346667 3.477333-4.309333 7.168-1.962667 3.712-3.584 7.573334-1.6 3.882667-2.816 7.893333-1.216 4.010667-2.026667 8.106667-0.810667 4.117333-1.237333 8.298666Q85.333333 251.797333 85.333333 256z" fill="#8992c8" p-id="18913" data-spm-anchor-id="a313x.search_index.0.i41.1cc13a81NGOjbW" class=""></path><path d="M640 405.333333v405.333334q0 2.090667 0.213333 4.181333t0.597334 4.138667q0.426667 2.048 1.024 4.053333 0.618667 2.026667 1.408 3.946667 0.810667 1.941333 1.792 3.797333 0.981333 1.834667 2.154666 3.584 1.173333 1.749333 2.496 3.370667 1.322667 1.621333 2.816 3.093333 1.493333 1.493333 3.093334 2.816 1.621333 1.322667 3.370666 2.496 1.749333 1.173333 3.584 2.133333 1.856 1.002667 3.797334 1.813334 1.92 0.789333 3.925333 1.408 2.005333 0.597333 4.053333 1.024 2.069333 0.405333 4.16 0.597333 2.090667 0.213333 4.181334 0.213333h213.333333q2.090667 0 4.181333-0.213333t4.138667-0.597333q2.048-0.426667 4.053333-1.024 2.026667-0.618667 3.946667-1.408 1.941333-0.810667 3.797333-1.792 1.834667-1.002667 3.584-2.154667 1.749333-1.173333 3.370667-2.496 1.621333-1.322667 3.093333-2.816 1.493333-1.493333 2.816-3.093333 1.322667-1.621333 2.496-3.370667 1.173333-1.749333 2.133334-3.584 1.002667-1.856 1.813333-3.797333 0.789333-1.92 1.408-3.925334 0.597333-2.026667 1.024-4.053333 0.405333-2.069333 0.597333-4.16 0.213333-2.090667 0.213334-4.181333V405.333333q0-2.090667-0.213334-4.181333t-0.597333-4.138667q-0.426667-2.069333-1.024-4.053333-0.618667-2.026667-1.408-3.946667-0.810667-1.941333-1.792-3.797333-1.002667-1.834667-2.154667-3.584-1.173333-1.749333-2.496-3.370667-1.322667-1.621333-2.816-3.093333-1.493333-1.493333-3.093333-2.816-1.621333-1.322667-3.370667-2.496-1.749333-1.173333-3.584-2.133333-1.856-1.002667-3.797333-1.813334-1.92-0.789333-3.925333-1.408-2.026667-0.597333-4.053334-1.024-2.069333-0.405333-4.16-0.597333Q898.090667 362.666667 896 362.666667H682.666667q-2.090667 0-4.181334 0.213333t-4.138666 0.597333q-2.069333 0.426667-4.053334 1.024-2.026667 0.618667-3.946666 1.408-1.941333 0.810667-3.797334 1.792-1.834667 0.981333-3.584 2.154667-1.749333 1.173333-3.370666 2.496-1.621333 1.322667-3.093334 2.816-1.493333 1.493333-2.816 3.093333-1.322667 1.621333-2.496 3.370667-1.173333 1.749333-2.133333 3.584-1.002667 1.856-1.813333 3.797333-0.789333 1.92-1.408 3.925334-0.597333 2.005333-1.024 4.053333-0.405333 2.069333-0.597334 4.16-0.213333 2.090667-0.213333 4.181333z m256 0H682.666667v405.333334h213.333333V405.333333z" fill="#17abe3" p-id="18914" data-spm-anchor-id="a313x.search_index.0.i38.1cc13a81NGOjbW" class="selected"></path><path d="M640 682.666667m0 0l298.666667 0q0 0 0 0l0 42.666666q0 0 0 0l-298.666667 0q0 0 0 0l0-42.666666q0 0 0 0Z" fill="#17abe3" p-id="18915" data-spm-anchor-id="a313x.search_index.0.i39.1cc13a81NGOjbW" class="selected"></path><path d="M768 768a21.333333 21.333333 0 1 0 42.666667 0 21.333333 21.333333 0 1 0-42.666667 0Z" fill="#17abe3" p-id="18916" data-spm-anchor-id="a313x.search_index.0.i37.1cc13a81NGOjbW" class="selected"></path></svg>